<svg preserveAspectRatio="none" width="100%" height="100%" overflow="visible" style="display: block;" viewBox="0 0 14 14" fill="none" xmlns="http://www.w3.org/2000/svg">
<g id="Group">
<path id="Vector" opacity="0" d="M14 0H0V14H14V0Z" fill="var(--fill-0, black)"/>
<path id="Vector_2" d="M5.2104 12.8134C3.8286 12.4018 2.64227 11.4827 1.87385 10.2754L4.15214 10.2411L5.09581 9.01322L4.37458 6.74965L2.62205 6.02941L0.903223 7.01716C0.909967 5.54239 1.4155 4.21853 2.25806 3.1759L2.89841 5.32289L4.59702 6.02255L6.4911 4.54092V2.7369L4.77901 1.32387C5.43283 1.07007 6.14059 0.932874 6.86856 0.932874C7.59656 0.932874 8.30425 1.07007 8.9581 1.32387L7.25276 2.7369V4.54092L9.14688 6.02255L10.8387 5.32289L11.4791 3.1759C12.3216 4.21853 12.8272 5.54239 12.8339 7.01716L11.1151 6.02941L9.36258 6.74965L8.64129 9.01322L9.58497 10.2411L11.8633 10.2754C11.0948 11.4827 9.90855 12.4018 8.52671 12.8134L9.00532 10.7144L8.14253 9.59629H5.59461L4.73856 10.7144L5.2104 12.8134ZM6.8753 13.9932C10.6702 13.9932 13.7506 10.8584 13.7506 6.99659C13.7506 3.13474 10.6702 0 6.8753 0C3.0804 0 0 3.13474 0 6.99659C0 10.8584 3.0804 13.9932 6.8753 13.9932Z" fill="var(--fill-0, black)"/>
</g>
</svg>
