<svg preserveAspectRatio="none" width="100%" height="100%" overflow="visible" style="display: block;" viewBox="0 0 15.7726 18.3333" fill="none" xmlns="http://www.w3.org/2000/svg">
<path id="Vector" d="M12.0533 8.50016C12.0533 7.61354 11.6481 6.73389 10.8766 6.06527C10.1014 5.39343 9.02712 5.00005 7.88668 5C6.74626 5 5.67201 5.3935 4.89677 6.06527C4.12527 6.7339 3.72001 7.61353 3.72001 8.50016C3.71998 10.5466 3.21039 12.0843 2.54407 13.2113C2.3155 13.5978 2.13092 13.9121 1.9858 14.1634C2.20131 14.165 2.45985 14.1667 2.76786 14.1667H13.0047C13.3127 14.1667 13.5712 14.165 13.7867 14.1634C13.6416 13.9121 13.4578 13.5977 13.2293 13.2113C12.5629 12.0843 12.0534 10.5467 12.0533 8.50016ZM6.44462 15.8333C6.73291 16.3311 7.27011 16.6667 7.88668 16.6667C8.50323 16.6666 9.04051 16.3311 9.32874 15.8333H6.44462ZM9.13668 2.91667C9.13668 2.22639 8.57693 1.66679 7.88668 1.66667C7.19632 1.66667 6.63668 2.22631 6.63668 2.91667C6.63668 3.10104 6.67674 3.27533 6.74817 3.43262C7.12131 3.36701 7.50274 3.33333 7.88668 3.33333C8.27015 3.33335 8.65085 3.36715 9.02356 3.43262C9.09512 3.27522 9.13668 3.10121 9.13668 2.91667ZM10.8033 2.91667C10.8033 3.27439 10.7375 3.61699 10.6194 3.93392C11.1081 4.16297 11.563 4.45543 11.9679 4.80632C13.0717 5.76299 13.72 7.08833 13.72 8.50016C13.72 10.2565 14.1537 11.5002 14.664 12.3633C14.996 12.9248 15.2548 13.363 15.4282 13.6768C15.5141 13.8323 15.5905 13.9765 15.6455 14.0999C15.6727 14.1612 15.7026 14.2351 15.726 14.3132C15.7435 14.3715 15.7861 14.5221 15.7684 14.7046C15.7585 14.805 15.7363 15.0048 15.6202 15.2083C15.5041 15.4119 15.3436 15.5329 15.2622 15.5924C15.1297 15.6893 14.9971 15.7312 14.9309 15.7495C14.8529 15.7711 14.7766 15.7834 14.7137 15.7918C14.588 15.8086 14.4414 15.8175 14.2889 15.8228C13.9811 15.8334 13.5494 15.8333 13.0047 15.8333H11.115C10.745 17.271 9.4398 18.3332 7.88668 18.3333C6.3335 18.3333 5.02838 17.271 4.65833 15.8333H2.76786C2.22315 15.8333 1.7914 15.8334 1.48368 15.8228C1.33113 15.8175 1.18458 15.8086 1.05888 15.7918C0.996082 15.7834 0.92031 15.7711 0.842407 15.7495C0.776273 15.7312 0.64308 15.6895 0.510376 15.5924C0.428923 15.5329 0.269175 15.4117 0.153117 15.2083C0.0370033 15.0048 0.0140059 14.805 0.00419094 14.7046C-0.0135839 14.522 0.02985 14.3714 0.0473224 14.3132C0.0707525 14.2351 0.100627 14.1612 0.127889 14.0999C0.18285 13.9766 0.258491 13.8322 0.34436 13.6768C0.517741 13.3629 0.777206 12.925 1.10933 12.3633C1.6197 11.5002 2.05332 10.2565 2.05334 8.50016C2.05334 7.08826 2.7016 5.763 3.80546 4.80632C4.21014 4.45561 4.66475 4.16373 5.15312 3.93473C5.03493 3.61763 4.97001 3.27461 4.97001 2.91667C4.97001 1.30584 6.27585 0 7.88668 0C9.4974 0.000125838 10.8033 1.30591 10.8033 2.91667Z" fill="var(--fill-0, #111827)"/>
</svg>
